<?xml version="1.0" standalone="no"?>
<!DOCTYPE svg PUBLIC "-//W3C//DTD SVG 20010904//EN"
 "http://www.w3.org/TR/2001/REC-SVG-20010904/DTD/svg10.dtd">
<svg version="1.0" xmlns="http://www.w3.org/2000/svg"
 width="801.000000pt" height="801.000000pt" viewBox="0 0 801.000000 801.000000"
 preserveAspectRatio="xMidYMid meet">

<g transform="translate(0.000000,801.000000) scale(0.100000,-0.100000)"
fill="#000000" stroke="none">
<path d="M1940 6985 c0 -1 56 -121 124 -267 133 -286 153 -334 143 -344 -4 -4
-143 -3 -309 3 -167 5 -304 9 -305 8 -2 -1 12 -37 31 -81 163 -380 215 -509
209 -515 -5 -4 -134 -11 -288 -15 -154 -3 -282 -8 -284 -10 -2 -2 0 -9 6 -16
5 -7 24 -49 42 -93 30 -70 105 -241 177 -403 13 -29 24 -57 24 -63 0 -7 27 -9
83 -5 45 3 172 11 282 17 110 6 201 12 203 14 3 3 -191 462 -224 529 -8 16
-11 33 -6 38 5 5 138 7 298 6 l289 -3 53 -130 c29 -71 73 -183 97 -248 25 -65
55 -141 67 -169 l21 -50 516 6 c284 3 991 9 1571 12 l1055 6 44 -99 c25 -54
65 -140 90 -191 l46 -94 -76 -146 c-41 -81 -118 -227 -169 -324 l-95 -178
-1247 0 c-687 0 -1248 -2 -1248 -5 0 -3 -24 -110 -54 -238 -30 -128 -71 -304
-90 -392 -20 -88 -43 -182 -50 -210 -8 -27 -31 -126 -51 -220 -20 -93 -61
-269 -90 -390 -29 -121 -81 -339 -115 -485 -34 -146 -73 -310 -86 -365 -21
-91 -121 -526 -240 -1049 -25 -109 -44 -200 -42 -201 2 -2 416 -1 921 2 l919
6 8 21 c5 12 38 147 74 301 37 154 100 420 142 590 41 171 106 445 145 610 38
165 75 305 82 311 6 7 40 14 75 16 48 3 65 1 76 -11 7 -9 60 -97 118 -196 95
-164 777 -1332 906 -1552 l54 -93 582 0 c321 0 746 -3 945 -7 l362 -6 -369
614 c-203 338 -401 666 -440 730 -68 112 -262 489 -262 509 0 11 398 809 864
1732 168 334 306 616 306 628 0 22 -11 52 -102 270 -36 85 -140 337 -232 560
-91 223 -175 425 -186 450 -11 25 -58 140 -106 255 -47 116 -94 228 -104 250
-9 22 -46 111 -81 198 l-63 157 -616 0 c-905 0 -4026 10 -4237 14 -101 2 -183
2 -183 1z"/>
<path d="M428 6972 l-277 -2 26 -58 c71 -158 206 -471 216 -500 l11 -33 220 3
c321 4 379 7 368 21 -5 7 -19 37 -30 67 -22 57 -115 285 -174 425 -29 69 -37
80 -58 80 -14 0 -150 -1 -302 -3z"/>
</g>
</svg>
